<svg width="24" height="24" viewBox="0 0 24 24" fill="none" xmlns="http://www.w3.org/2000/svg">
<g clip-path="url(#clip0_144_153)">
<rect width="24" height="24" rx="3" fill="white"/>
<path d="M2.079 17V7.9H3.821L7.695 14.322H6.772L10.581 7.9H12.31L12.336 17H10.36L10.347 10.929H10.711L7.669 16.038H6.72L3.613 10.929H4.055V17H2.079ZM14.495 17V7.9H18.434C19.2487 7.9 19.9507 8.03433 20.54 8.303C21.1293 8.563 21.5843 8.94 21.905 9.434C22.2257 9.928 22.386 10.5173 22.386 11.202C22.386 11.878 22.2257 12.463 21.905 12.957C21.5843 13.451 21.1293 13.8323 20.54 14.101C19.9507 14.361 19.2487 14.491 18.434 14.491H15.665L16.601 13.542V17H14.495ZM16.601 13.776L15.665 12.775H18.317C18.967 12.775 19.4523 12.6363 19.773 12.359C20.0937 12.0817 20.254 11.696 20.254 11.202C20.254 10.6993 20.0937 10.3093 19.773 10.032C19.4523 9.75467 18.967 9.616 18.317 9.616H15.665L16.601 8.615V13.776Z" fill="black"/>
</g>
<defs>
<clipPath id="clip0_144_153">
<rect width="24" height="24" fill="white"/>
</clipPath>
</defs>
</svg>
